<?xml version="1.0" standalone="no"?>
<!DOCTYPE svg PUBLIC "-//W3C//DTD SVG 20010904//EN"
 "http://www.w3.org/TR/2001/REC-SVG-20010904/DTD/svg10.dtd">
<svg version="1.0" xmlns="http://www.w3.org/2000/svg"
 width="1000.000000pt" height="600.000000pt" viewBox="0 0 1000.000000 600.000000"
 preserveAspectRatio="xMidYMid meet">
<metadata>
Created by potrace 1.15, written by Peter Selinger 2001-2017
</metadata>
<g transform="translate(0.000000,600.000000) scale(0.100000,-0.100000)"
fill="#000000" stroke="none">
<path d="M5615 5467 c-69 -18 -150 -64 -187 -106 -68 -78 -108 -201 -108 -336
0 -135 40 -258 108 -336 95 -108 298 -148 455 -89 173 65 269 272 237 511 -22
167 -109 291 -238 339 -70 27 -197 35 -267 17z m208 -103 c132 -45 208 -220
179 -415 -14 -101 -39 -157 -92 -207 -55 -54 -122 -76 -209 -70 -170 12 -261
136 -261 353 0 187 69 306 200 346 43 13 135 10 183 -7z"/>
<path d="M160 5410 l0 -50 155 0 155 0 0 -385 0 -385 60 0 60 0 0 385 0 385
155 0 155 0 0 50 0 50 -370 0 -370 0 0 -50z"/>
<path d="M1020 5025 l0 -435 285 0 285 0 0 50 0 50 -230 0 -230 0 0 165 0 165
230 0 230 0 0 50 0 50 -230 0 -230 0 0 120 0 120 230 0 230 0 0 50 0 50 -285
0 -285 0 0 -435z"/>
<path d="M1830 5038 c-84 -233 -156 -429 -158 -436 -3 -10 9 -12 54 -10 l59 3
40 117 40 118 191 0 192 0 42 -120 42 -120 60 0 c44 0 59 3 56 13 -2 6 -73
202 -158 435 l-154 422 -76 0 -76 0 -154 -422z m304 108 c37 -104 70 -195 73
-202 4 -12 -23 -14 -150 -14 l-154 0 75 210 c42 116 78 207 82 203 4 -5 37
-93 74 -197z"/>
<path d="M2590 5025 l0 -435 50 0 50 0 0 372 c0 230 4 368 9 363 5 -6 61 -118
123 -250 l113 -240 35 -3 35 -3 120 253 120 253 3 -373 2 -372 55 0 55 0 0
435 0 435 -78 0 -79 0 -108 -236 c-60 -129 -112 -237 -115 -239 -4 -2 -58 104
-121 235 l-114 240 -77 0 -78 0 0 -435z"/>
<path d="M3990 5415 l0 -45 60 0 60 0 0 -345 0 -345 -60 0 -60 0 0 -45 0 -45
170 0 170 0 0 45 0 45 -55 0 -55 0 0 345 0 345 55 0 55 0 0 45 0 45 -170 0
-170 0 0 -45z"/>
<path d="M4530 5026 l0 -436 55 0 55 0 0 175 0 175 83 0 83 0 144 -171 c78
-94 148 -173 155 -175 7 -3 41 -4 75 -2 l64 3 -162 190 -163 189 45 23 c90 46
145 154 132 256 -9 65 -26 97 -75 139 -62 53 -96 60 -303 65 l-188 5 0 -436z
m375 314 c72 -37 95 -127 53 -210 -35 -69 -71 -84 -205 -89 l-113 -3 0 162 0
162 118 -4 c78 -2 127 -8 147 -18z"/>
<path d="M6310 5025 l0 -435 50 0 50 0 0 387 c0 251 3 384 10 377 5 -5 99
-178 208 -384 l199 -375 72 -3 71 -3 0 436 0 435 -50 0 -50 0 0 -350 c0 -192
-3 -350 -7 -350 -5 1 -91 158 -192 350 l-185 350 -88 0 -88 0 0 -435z"/>
<path d="M7210 5025 l0 -435 50 0 50 0 0 372 c0 230 4 368 9 363 5 -6 61 -118
123 -250 l113 -240 35 -3 35 -3 120 253 120 253 3 -373 2 -372 55 0 55 0 0
435 0 435 -78 0 -79 0 -108 -236 c-60 -129 -112 -237 -115 -239 -4 -2 -58 104
-121 235 l-114 240 -77 0 -78 0 0 -435z"/>
<path d="M8280 5038 c-84 -233 -156 -429 -158 -436 -3 -10 9 -12 54 -10 l59 3
40 117 40 118 191 0 192 0 42 -120 42 -120 60 0 c44 0 59 3 56 13 -2 6 -73
202 -158 435 l-154 422 -76 0 -76 0 -154 -422z m304 108 c37 -104 70 -195 73
-202 4 -12 -23 -14 -150 -14 l-154 0 75 210 c42 116 78 207 82 203 4 -5 37
-93 74 -197z"/>
<path d="M9040 5025 l0 -435 50 0 50 0 0 387 c0 251 3 384 10 377 5 -5 99
-178 208 -384 l199 -375 72 -3 71 -3 0 436 0 435 -50 0 -50 0 0 -350 c0 -192
-3 -350 -7 -350 -5 1 -91 158 -192 350 l-185 350 -88 0 -88 0 0 -435z"/>
<path d="M6182 4861 c-24 -117 -99 -231 -190 -290 -75 -48 -128 -63 -252 -71
l-115 -8 135 2 c113 2 144 6 192 25 121 47 213 172 238 321 15 87 9 102 -8 21z"/>
<path d="M1911 4728 c-5 -13 -21 -58 -36 -101 -15 -43 -37 -84 -48 -92 -16
-12 -92 -14 -415 -15 -218 0 -398 -2 -401 -5 -2 -3 186 -4 419 -3 l424 3 39
112 39 112 137 4 136 3 -143 2 c-140 2 -143 2 -151 -20z"/>
<path d="M4485 4352 c-50 -36 -75 -131 -100 -377 -19 -186 -15 -374 10 -455 8
-25 22 -95 30 -155 19 -125 12 -165 -27 -165 -13 0 -75 -19 -138 -42 -97 -35
-133 -54 -228 -124 l-113 -82 -77 5 c-42 3 -82 10 -88 14 -6 5 -32 6 -58 3
l-46 -7 0 -61 0 -61 52 -13 c66 -15 73 -23 49 -53 -19 -23 -20 -23 -15 -3 7
25 2 29 -48 38 l-38 7 0 -957 c0 -527 3 -955 6 -951 14 13 24 88 24 171 0 116
22 210 78 328 42 92 62 118 62 83 0 -9 13 -44 30 -79 16 -35 39 -98 52 -141
16 -55 29 -80 44 -87 14 -7 27 -32 42 -84 12 -40 22 -82 22 -91 0 -10 8 -48
17 -85 l17 -68 807 0 807 0 15 63 c8 34 18 80 22 103 12 79 42 157 61 165 13
4 28 34 47 92 15 47 47 138 70 201 l43 116 27 -57 c14 -32 38 -71 51 -88 l25
-30 1 568 c0 411 -3 566 -11 561 -8 -4 -8 0 0 15 8 13 11 85 9 213 l-3 193
-25 -3 c-14 -2 -54 -7 -90 -11 -36 -4 -72 -11 -81 -15 -11 -5 -52 20 -132 78
-63 46 -124 89 -134 95 -32 16 -254 91 -273 91 -11 0 -20 10 -25 27 -7 29 18
186 42 267 22 74 37 300 24 361 -5 27 -13 97 -16 154 -8 164 -32 270 -68 309
l-31 32 -355 0 c-196 0 -360 -4 -366 -8z m776 -462 c-6 -81 -7 -143 0 -175 5
-27 12 -77 15 -110 6 -56 3 -65 -33 -135 -64 -122 -127 -229 -136 -230 -4 0
-22 -16 -39 -35 -17 -20 -33 -33 -36 -31 -2 3 17 30 45 59 27 30 54 70 60 90
13 44 7 47 -25 10 -19 -24 -18 -19 9 36 38 79 61 141 51 141 -4 0 -15 -22 -25
-50 -18 -50 -77 -153 -84 -147 -2 2 4 20 12 40 17 41 19 61 4 34 -13 -22 -32
-12 -24 14 9 26 -3 24 -27 -6 -26 -34 -38 -31 -38 8 0 18 -9 58 -20 90 -11 31
-20 64 -20 74 1 17 1 17 14 0 22 -28 138 -30 194 -4 49 24 57 42 10 23 -18 -8
-65 -17 -104 -21 -59 -6 -72 -4 -84 10 -11 13 -11 21 -2 36 11 17 9 19 -20 20
-18 1 -37 0 -43 -1 -18 -5 -137 -1 -143 4 -3 3 26 6 64 7 167 3 164 1 164 94
0 75 1 76 23 69 12 -3 22 -7 23 -8 1 0 6 -10 12 -21 11 -19 11 -19 12 5 1 39
15 57 34 41 9 -8 16 -21 16 -30 1 -37 18 16 25 77 4 34 11 65 16 68 5 3 9 0 9
-6 0 -6 5 -8 10 -5 6 3 10 18 10 33 0 19 3 23 11 15 8 -8 10 -52 7 -137 -2
-69 -1 -123 3 -118 3 4 11 61 18 127 6 66 17 163 24 215 l12 95 3 -70 c2 -38
-1 -126 -7 -195z m-807 138 c4 -57 11 -121 16 -143 l8 -40 1 45 c2 64 12 120
22 120 5 0 9 -9 9 -20 0 -11 7 -23 15 -26 12 -5 15 -24 15 -85 0 -43 5 -100
10 -126 10 -45 14 -50 61 -72 27 -13 63 -25 80 -26 33 -3 53 -15 24 -15 -17 0
-17 -1 0 -20 19 -21 14 -47 -11 -57 -14 -5 -119 7 -188 23 -21 5 -27 4 -22 -5
4 -6 11 -9 16 -6 16 10 58 -25 69 -57 6 -17 11 -44 11 -60 0 -16 18 -66 40
-110 22 -45 40 -87 40 -93 0 -17 37 -48 49 -41 11 7 41 -31 41 -52 0 -9 -11
-13 -34 -11 -26 3 -39 -3 -60 -26 l-26 -30 16 31 c19 33 22 26 -43 103 -20 24
-22 24 -23 6 0 -11 -13 8 -30 43 -16 34 -43 83 -61 108 -17 25 -41 71 -54 102
-25 64 -41 125 -27 103 7 -9 9 1 9 30 0 24 3 64 8 89 11 58 12 102 1 284 -5
96 -5 146 2 143 5 -4 12 -53 16 -109z m620 -1303 c3 -8 0 -15 -6 -15 -7 0 -7
-5 1 -14 9 -11 9 -20 2 -35 -10 -18 -21 -20 -101 -20 -79 0 -91 2 -100 19 -8
15 -8 20 1 20 9 0 9 3 0 14 -6 7 -9 21 -5 30 9 23 199 24 208 1z m-1144 -351
l0 -224 -45 0 c-25 0 -45 -4 -45 -10 0 -12 68 -11 93 2 13 7 17 21 17 65 0 46
2 53 14 44 21 -18 26 15 26 193 l0 158 104 -4 c67 -2 109 -8 120 -17 13 -11
16 -32 16 -102 0 -78 -2 -90 -21 -103 l-21 -14 21 -12 c20 -10 22 -18 19 -103
l-3 -92 -47 -3 -48 -3 0 91 c0 89 -1 91 -22 88 -22 -3 -23 -8 -26 -90 l-3 -88
-47 -1 c-38 0 -43 -2 -24 -9 16 -7 22 -18 22 -39 0 -45 -20 -58 -82 -54 -104
8 -113 10 -110 21 3 18 -15 14 -22 -4 -3 -9 -6 -25 -6 -35 0 -16 -6 -20 -27
-17 -25 3 -29 9 -41 66 -20 90 -12 110 41 114 l42 3 3 195 c1 107 4 200 6 205
2 6 24 9 50 7 l46 -4 0 -224z m570 212 l25 -11 3 -197 c2 -192 2 -197 -19
-208 -58 -32 -217 -18 -220 19 -3 32 3 386 7 390 2 2 25 10 51 17 51 13 111 9
153 -10z m596 -45 l30 -65 31 65 30 65 44 -1 44 -1 0 -224 0 -225 -45 -5 -45
-6 42 -8 c23 -4 48 -4 54 0 8 4 9 3 5 -4 -4 -6 -2 -20 3 -31 7 -13 7 -29 0
-50 -8 -23 -8 -35 1 -46 8 -10 8 -19 1 -34 -10 -17 -7 -21 27 -32 20 -7 58
-12 83 -11 35 2 48 -1 53 -13 9 -24 -31 -75 -59 -75 -30 0 -42 -30 -15 -37 27
-7 20 -27 -9 -31 -20 -3 -22 -8 -17 -33 5 -29 -10 -79 -25 -79 -4 0 -6 -14 -5
-30 1 -17 -4 -36 -12 -42 -11 -9 -12 -7 -8 13 3 13 8 65 11 114 3 50 9 101 12
113 5 20 2 23 -18 20 -18 -2 -24 -9 -24 -28 0 -15 -6 -25 -15 -25 -10 0 -14
-9 -12 -25 1 -14 -3 -29 -10 -35 -17 -14 -38 -51 -38 -69 0 -16 -44 -29 -70
-21 -15 5 -17 2 -13 -15 3 -12 -2 -29 -12 -40 -17 -19 -17 -20 1 -21 10 -1 25
-1 33 0 7 2 11 -4 9 -11 -5 -14 -91 -35 -149 -37 -23 -1 -39 -7 -43 -16 -3 -8
-14 -15 -23 -15 -10 0 -28 -6 -39 -14 -23 -16 -84 -24 -102 -12 -6 4 -16 4
-22 1 -5 -3 -10 -2 -10 4 0 6 -7 8 -15 5 -8 -4 -15 -1 -15 5 0 6 -10 11 -21
11 -12 0 -58 12 -103 26 -45 14 -87 28 -94 30 -19 6 -5 24 19 24 23 0 25 13 4
30 -8 7 -15 21 -15 32 0 15 -3 17 -19 9 -14 -8 -22 -6 -35 8 -9 9 -16 22 -16
27 0 6 -16 25 -35 44 -25 24 -32 37 -24 46 12 14 -5 29 -21 19 -5 -3 -10 1
-10 10 0 9 4 14 9 11 10 -7 25 24 16 33 -3 3 -29 6 -58 7 -29 1 -55 3 -59 3
-5 1 -8 8 -8 16 0 9 -9 15 -25 15 -14 0 -25 5 -25 10 0 6 10 10 23 10 12 0 31
7 41 15 11 8 37 15 58 15 24 0 38 5 38 13 0 8 4 7 10 -3 9 -13 11 -13 19 0 11
17 5 30 -14 30 -8 0 -13 9 -12 20 1 11 7 20 14 20 7 0 10 -7 7 -15 -4 -8 -1
-15 5 -15 13 0 31 32 31 56 0 13 -3 14 -15 4 -11 -9 -17 -9 -28 2 -13 11 -13
17 0 41 7 15 11 32 8 37 -6 9 6 11 72 15 32 1 63 34 63 65 0 49 12 90 26 90
11 0 14 30 14 155 l0 155 50 0 c41 0 50 -3 51 -17 0 -10 11 -49 24 -88 l25
-70 -4 55 c-2 30 -1 70 1 88 5 31 7 32 53 32 l47 0 -1 -222 -1 -223 -45 -6
-45 -7 50 2 50 1 6 105 c3 58 6 98 7 89 1 -9 10 -27 20 -39 21 -26 51 -18 53
14 1 16 2 17 6 4 5 -20 5 -20 27 -12 14 5 16 28 16 149 0 156 0 155 60 152 33
-2 37 -6 66 -66z m412 54 l52 -16 0 -214 0 -215 -51 0 -50 0 2 88 c2 82 1 87
-19 90 -20 3 -21 -2 -24 -85 l-3 -88 -47 -3 -48 -3 0 209 c0 231 -2 225 66
241 56 13 65 13 122 -4z m186 -12 c33 -115 47 -163 50 -163 1 0 0 41 -2 90
l-4 90 51 0 51 0 0 -225 0 -225 -34 0 c-18 0 -48 -3 -65 -6 l-31 -6 2 74 c0
41 -4 83 -11 94 -9 15 -11 2 -9 -66 l3 -85 -47 0 c-27 0 -48 3 -48 8 0 4 0
104 0 222 l0 215 44 0 c34 0 46 -4 50 -17z m189 -463 c59 1 76 -13 35 -30 -18
-7 -19 -9 -5 -9 9 -1 17 -8 17 -16 0 -21 -41 -15 -64 8 -10 9 -23 14 -29 10
-7 -4 -4 -9 8 -13 25 -9 -55 -20 -142 -20 -57 0 -63 2 -55 18 4 9 8 24 8 32
-1 18 39 26 114 22 30 -1 81 -2 113 -2z m-907 -881 l63 2 3 -76 c2 -41 7 -75
13 -75 6 0 11 33 13 75 4 103 22 95 22 -9 0 -89 -9 -104 -51 -91 -16 6 -19 17
-19 81 0 59 -3 74 -15 74 -12 0 -15 -14 -17 -62 -1 -82 -2 -83 -13 -86 -6 -1
-11 30 -13 73 -2 58 -6 75 -17 75 -8 0 -15 -7 -15 -15 0 -8 -4 -15 -10 -15 -5
0 -10 7 -10 15 0 8 -7 15 -15 15 -24 0 -17 -38 10 -56 19 -13 25 -25 25 -54 0
-26 -5 -40 -16 -44 -28 -11 -54 3 -54 30 0 30 16 32 23 3 3 -12 10 -18 16 -14
19 11 12 40 -14 63 -30 26 -34 76 -8 91 10 5 22 7 27 4 5 -3 37 -5 72 -4z
m-616 -24 c0 -14 5 -25 10 -25 6 0 10 11 10 25 0 20 5 25 25 25 23 0 25 -4 26
-42 1 -24 3 -34 6 -23 2 11 6 30 9 43 3 15 12 22 29 22 21 0 25 -5 26 -32 l1
-33 7 30 c6 29 8 30 64 32 54 2 57 1 57 -22 0 -13 5 -27 10 -30 6 -4 10 7 10
24 l0 31 70 0 70 0 0 -70 c0 -40 4 -70 10 -70 6 0 10 -9 10 -19 0 -18 -7 -20
-62 -18 l-63 2 -6 45 c-5 34 -6 37 -7 14 -1 -16 -9 -39 -17 -50 -15 -19 -15
-19 -30 0 -8 11 -15 33 -15 49 0 17 -4 26 -11 22 -6 -4 -8 -22 -4 -46 8 -46
-7 -52 -29 -11 l-15 27 -1 -27 c0 -24 -4 -28 -30 -28 -17 0 -33 7 -40 18 -10
16 -10 16 -20 0 -6 -10 -22 -18 -35 -18 -13 0 -29 8 -34 18 -10 16 -10 15 -11
-3 -1 -18 -2 -18 -13 -3 -10 15 -12 15 -22 1 -23 -31 -35 -3 -35 83 0 83 0 84
25 84 20 0 25 -5 25 -25z m938 13 c9 -9 12 -9 12 0 0 15 56 16 65 2 4 -6 4
-19 0 -28 -6 -16 -7 -16 -16 1 -14 23 -29 22 -29 -4 0 -12 11 -30 25 -41 31
-24 34 -72 6 -88 -21 -11 -51 -4 -51 11 0 5 -11 2 -24 -6 -19 -13 -29 -14 -45
-5 -18 9 -21 20 -21 84 0 40 3 76 7 79 11 11 58 8 71 -5z"/>
<path d="M4380 2375 l0 -165 25 0 25 0 0 165 0 165 -25 0 -25 0 0 -165z"/>
</g>
</svg>
